<svg xmlns="http://www.w3.org/2000/svg" xmlns:xlink="http://www.w3.org/1999/xlink" width="500" zoomAndPan="magnify" viewBox="0 0 375 374.999991" height="500" preserveAspectRatio="xMidYMid meet" version="1.0"><defs><clipPath id="ac52019484"><path d="M 41 188 L 338 188 L 338 354.996094 L 41 354.996094 Z M 41 188 " clip-rule="nonzero"/></clipPath><clipPath id="db6b06da9a"><path d="M 316 243 L 345.558594 243 L 345.558594 298 L 316 298 Z M 316 243 " clip-rule="nonzero"/></clipPath><clipPath id="2d4f08b689"><path d="M 29.808594 237 L 59 237 L 59 292 L 29.808594 292 Z M 29.808594 237 " clip-rule="nonzero"/></clipPath></defs><path fill="#d8d4d3" d="M 259.542969 130.054688 C 259.542969 131.164062 259.515625 132.273438 259.460938 133.378906 C 259.40625 134.488281 259.324219 135.59375 259.214844 136.695312 C 259.105469 137.800781 258.972656 138.902344 258.808594 139.996094 C 258.644531 141.09375 258.457031 142.1875 258.238281 143.273438 C 258.023438 144.363281 257.78125 145.445312 257.511719 146.519531 C 257.242188 147.59375 256.945312 148.664062 256.625 149.722656 C 256.300781 150.785156 255.953125 151.839844 255.582031 152.882812 C 255.207031 153.925781 254.808594 154.960938 254.382812 155.984375 C 253.960938 157.011719 253.511719 158.023438 253.035156 159.027344 C 252.5625 160.027344 252.0625 161.019531 251.539062 161.996094 C 251.019531 162.976562 250.472656 163.9375 249.902344 164.890625 C 249.332031 165.839844 248.738281 166.777344 248.121094 167.699219 C 247.503906 168.621094 246.867188 169.527344 246.207031 170.417969 C 245.546875 171.308594 244.863281 172.183594 244.160156 173.042969 C 243.457031 173.898438 242.734375 174.738281 241.988281 175.558594 C 241.242188 176.382812 240.480469 177.183594 239.695312 177.96875 C 238.910156 178.753906 238.109375 179.515625 237.285156 180.261719 C 236.464844 181.007812 235.625 181.730469 234.769531 182.433594 C 233.910156 183.136719 233.035156 183.820312 232.144531 184.480469 C 231.253906 185.140625 230.347656 185.78125 229.425781 186.394531 C 228.503906 187.011719 227.566406 187.605469 226.617188 188.175781 C 225.664062 188.746094 224.703125 189.292969 223.722656 189.8125 C 222.746094 190.335938 221.753906 190.835938 220.753906 191.308594 C 219.75 191.785156 218.738281 192.234375 217.710938 192.65625 C 216.6875 193.082031 215.652344 193.480469 214.609375 193.855469 C 213.566406 194.226562 212.511719 194.574219 211.449219 194.898438 C 210.390625 195.21875 209.320312 195.515625 208.246094 195.785156 C 207.171875 196.054688 206.089844 196.296875 205 196.511719 C 203.914062 196.730469 202.820312 196.917969 201.722656 197.082031 C 200.625 197.246094 199.527344 197.378906 198.421875 197.488281 C 197.320312 197.597656 196.214844 197.679688 195.105469 197.734375 C 194 197.789062 192.890625 197.816406 191.78125 197.816406 C 190.671875 197.816406 189.5625 197.789062 188.457031 197.734375 C 187.347656 197.679688 186.242188 197.597656 185.140625 197.488281 C 184.035156 197.378906 182.9375 197.246094 181.839844 197.082031 C 180.742188 196.917969 179.648438 196.730469 178.5625 196.511719 C 177.472656 196.296875 176.390625 196.054688 175.316406 195.785156 C 174.242188 195.515625 173.171875 195.21875 172.113281 194.898438 C 171.050781 194.574219 169.996094 194.226562 168.953125 193.855469 C 167.910156 193.480469 166.875 193.082031 165.851562 192.65625 C 164.824219 192.234375 163.8125 191.785156 162.808594 191.308594 C 161.808594 190.835938 160.816406 190.335938 159.839844 189.8125 C 158.859375 189.292969 157.898438 188.746094 156.945312 188.175781 C 155.996094 187.605469 155.058594 187.011719 154.136719 186.394531 C 153.214844 185.78125 152.308594 185.140625 151.417969 184.480469 C 150.527344 183.820312 149.652344 183.136719 148.792969 182.433594 C 147.9375 181.730469 147.097656 181.007812 146.277344 180.261719 C 145.453125 179.515625 144.652344 178.753906 143.867188 177.96875 C 143.082031 177.183594 142.320312 176.382812 141.574219 175.558594 C 140.828125 174.738281 140.105469 173.898438 139.402344 173.042969 C 138.699219 172.183594 138.015625 171.308594 137.355469 170.417969 C 136.695312 169.527344 136.054688 168.621094 135.441406 167.699219 C 134.824219 166.777344 134.230469 165.84375 133.660156 164.890625 C 133.089844 163.941406 132.542969 162.976562 132.023438 161.996094 C 131.5 161.019531 131 160.027344 130.527344 159.027344 C 130.050781 158.023438 129.601562 157.011719 129.179688 155.984375 C 128.753906 154.960938 128.355469 153.925781 127.980469 152.882812 C 127.609375 151.839844 127.261719 150.785156 126.9375 149.726562 C 126.617188 148.664062 126.320312 147.59375 126.050781 146.519531 C 125.78125 145.445312 125.539062 144.363281 125.324219 143.273438 C 125.105469 142.1875 124.917969 141.09375 124.753906 139.996094 C 124.589844 138.898438 124.457031 137.800781 124.347656 136.695312 C 124.238281 135.59375 124.15625 134.488281 124.101562 133.378906 C 124.046875 132.273438 124.019531 131.164062 124.019531 130.054688 C 124.019531 128.945312 124.046875 127.835938 124.101562 126.730469 C 124.15625 125.621094 124.238281 124.515625 124.347656 123.414062 C 124.457031 122.308594 124.589844 121.210938 124.753906 120.113281 C 124.917969 119.015625 125.105469 117.921875 125.324219 116.835938 C 125.539062 115.746094 125.78125 114.667969 126.050781 113.589844 C 126.320312 112.515625 126.617188 111.445312 126.9375 110.386719 C 127.261719 109.324219 127.609375 108.269531 127.980469 107.226562 C 128.355469 106.183594 128.753906 105.148438 129.179688 104.125 C 129.601562 103.097656 130.050781 102.085938 130.527344 101.082031 C 131 100.082031 131.5 99.089844 132.023438 98.113281 C 132.542969 97.136719 133.089844 96.171875 133.660156 95.21875 C 134.230469 94.269531 134.824219 93.332031 135.441406 92.410156 C 136.054688 91.488281 136.695312 90.582031 137.355469 89.691406 C 138.015625 88.800781 138.699219 87.925781 139.402344 87.066406 C 140.105469 86.210938 140.828125 85.371094 141.574219 84.550781 C 142.320312 83.726562 143.082031 82.925781 143.867188 82.140625 C 144.652344 81.355469 145.453125 80.59375 146.277344 79.847656 C 147.097656 79.101562 147.9375 78.378906 148.792969 77.675781 C 149.652344 76.972656 150.527344 76.289062 151.417969 75.628906 C 152.308594 74.96875 153.214844 74.332031 154.136719 73.714844 C 155.058594 73.097656 155.996094 72.503906 156.945312 71.933594 C 157.898438 71.363281 158.859375 70.816406 159.839844 70.296875 C 160.816406 69.773438 161.808594 69.273438 162.808594 68.800781 C 163.8125 68.324219 164.824219 67.875 165.851562 67.453125 C 166.875 67.027344 167.910156 66.628906 168.953125 66.253906 C 169.996094 65.882812 171.050781 65.535156 172.113281 65.210938 C 173.171875 64.890625 174.242188 64.59375 175.316406 64.324219 C 176.390625 64.054688 177.472656 63.8125 178.5625 63.597656 C 179.648438 63.378906 180.742188 63.191406 181.839844 63.027344 C 182.9375 62.863281 184.035156 62.730469 185.140625 62.621094 C 186.242188 62.511719 187.347656 62.429688 188.457031 62.375 C 189.5625 62.320312 190.671875 62.292969 191.78125 62.292969 C 192.890625 62.292969 194 62.320312 195.105469 62.375 C 196.214844 62.429688 197.320312 62.511719 198.421875 62.621094 C 199.527344 62.730469 200.625 62.863281 201.722656 63.027344 C 202.820312 63.191406 203.914062 63.378906 205 63.597656 C 206.089844 63.8125 207.171875 64.054688 208.246094 64.324219 C 209.320312 64.59375 210.390625 64.890625 211.449219 65.210938 C 212.511719 65.535156 213.566406 65.882812 214.609375 66.253906 C 215.652344 66.628906 216.6875 67.027344 217.710938 67.453125 C 218.738281 67.875 219.75 68.324219 220.753906 68.800781 C 221.753906 69.273438 222.746094 69.773438 223.722656 70.296875 C 224.703125 70.816406 225.664062 71.363281 226.617188 71.933594 C 227.566406 72.503906 228.503906 73.097656 229.425781 73.714844 C 230.347656 74.332031 231.253906 74.96875 232.144531 75.628906 C 233.035156 76.289062 233.910156 76.972656 234.769531 77.675781 C 235.625 78.378906 236.464844 79.101562 237.285156 79.847656 C 238.109375 80.59375 238.910156 81.355469 239.695312 82.140625 C 240.480469 82.925781 241.242188 83.726562 241.988281 84.550781 C 242.734375 85.371094 243.457031 86.210938 244.160156 87.066406 C 244.863281 87.925781 245.546875 88.800781 246.207031 89.691406 C 246.867188 90.582031 247.503906 91.488281 248.121094 92.410156 C 248.738281 93.332031 249.332031 94.269531 249.902344 95.21875 C 250.472656 96.171875 251.019531 97.136719 251.539062 98.113281 C 252.0625 99.089844 252.5625 100.082031 253.035156 101.082031 C 253.511719 102.085938 253.960938 103.097656 254.382812 104.125 C 254.808594 105.148438 255.207031 106.183594 255.582031 107.226562 C 255.953125 108.269531 256.300781 109.324219 256.625 110.386719 C 256.945312 111.445312 257.242188 112.515625 257.511719 113.589844 C 257.78125 114.667969 258.023438 115.746094 258.238281 116.835938 C 258.457031 117.921875 258.644531 119.015625 258.808594 120.113281 C 258.972656 121.210938 259.105469 122.308594 259.214844 123.414062 C 259.324219 124.515625 259.40625 125.621094 259.460938 126.730469 C 259.515625 127.835938 259.542969 128.945312 259.542969 130.054688 Z M 259.542969 130.054688 " fill-opacity="1" fill-rule="nonzero"/><path fill="#000000" d="M 191.78125 200.328125 C 153.035156 200.328125 121.511719 168.804688 121.511719 130.054688 C 121.511719 91.304688 153.035156 59.78125 191.78125 59.78125 C 230.53125 59.78125 262.054688 91.304688 262.054688 130.054688 C 262.054688 168.804688 230.53125 200.328125 191.78125 200.328125 Z M 191.78125 64.804688 C 155.800781 64.804688 126.53125 94.074219 126.53125 130.054688 C 126.53125 166.035156 155.804688 195.304688 191.78125 195.304688 C 227.761719 195.304688 257.03125 166.035156 257.03125 130.054688 C 257.03125 94.074219 227.761719 64.804688 191.78125 64.804688 Z M 191.78125 64.804688 " fill-opacity="1" fill-rule="nonzero"/><path fill="#000000" d="M 153.699219 178.515625 C 153.132812 178.515625 152.566406 178.328125 152.097656 177.9375 C 140.128906 168.003906 132.351562 154.097656 130.199219 138.78125 C 130.007812 137.40625 130.964844 136.136719 132.335938 135.945312 C 133.714844 135.746094 134.980469 136.707031 135.171875 138.082031 C 137.152344 152.160156 144.300781 164.941406 155.300781 174.070312 C 156.371094 174.957031 156.515625 176.539062 155.628906 177.605469 C 155.136719 178.207031 154.421875 178.515625 153.699219 178.515625 Z M 153.699219 178.515625 " fill-opacity="1" fill-rule="nonzero"/><path fill="#f2c70f" d="M 127.308594 125.304688 L 127.308594 120.710938 L 258.207031 120.710938 C 259.179688 115.828125 259.707031 110.765625 259.707031 105.574219 C 259.707031 65.433594 229 32.894531 191.125 32.894531 C 153.25 32.894531 122.542969 65.433594 122.542969 105.574219 C 122.542969 112.417969 123.457031 119.03125 125.128906 125.304688 Z M 127.308594 125.304688 " fill-opacity="1" fill-rule="nonzero"/><path fill="#000000" d="M 127.308594 127.816406 L 125.132812 127.816406 C 123.992188 127.816406 123 127.050781 122.707031 125.953125 C 120.933594 119.308594 120.035156 112.453125 120.035156 105.574219 C 120.035156 64.113281 151.925781 30.382812 191.125 30.382812 C 230.324219 30.382812 262.21875 64.113281 262.21875 105.574219 C 262.21875 110.789062 261.695312 116.046875 260.667969 121.203125 C 260.433594 122.378906 259.402344 123.222656 258.207031 123.222656 L 129.816406 123.222656 L 129.816406 125.308594 C 129.816406 126.695312 128.691406 127.816406 127.308594 127.816406 Z M 191.125 35.402344 C 154.695312 35.402344 125.058594 66.882812 125.058594 105.574219 C 125.058594 109.898438 125.4375 114.210938 126.1875 118.460938 C 126.523438 118.296875 126.90625 118.199219 127.308594 118.199219 L 256.117188 118.199219 C 256.832031 114.019531 257.195312 109.78125 257.195312 105.574219 C 257.195312 66.882812 227.554688 35.402344 191.125 35.402344 Z M 191.125 35.402344 " fill-opacity="1" fill-rule="nonzero"/><path fill="#f2c70f" d="M 204.789062 105.363281 C 204.789062 114.0625 197.738281 121.113281 189.039062 121.113281 L 188.710938 121.113281 C 180.015625 121.113281 172.960938 114.0625 172.960938 105.363281 L 172.960938 38.425781 C 172.960938 29.726562 180.015625 22.675781 188.710938 22.675781 L 189.039062 22.675781 C 197.738281 22.675781 204.789062 29.726562 204.789062 38.425781 Z M 204.789062 105.363281 " fill-opacity="1" fill-rule="nonzero"/><path fill="#000000" d="M 189.039062 123.625 L 188.710938 123.625 C 178.640625 123.625 170.449219 115.433594 170.449219 105.363281 L 170.449219 38.425781 C 170.449219 28.355469 178.640625 20.164062 188.710938 20.164062 L 189.039062 20.164062 C 199.109375 20.164062 207.300781 28.355469 207.300781 38.425781 L 207.300781 105.363281 C 207.300781 115.433594 199.109375 123.625 189.039062 123.625 Z M 188.710938 25.1875 C 181.410156 25.1875 175.472656 31.125 175.472656 38.425781 L 175.472656 105.367188 C 175.472656 112.664062 181.410156 118.605469 188.710938 118.605469 L 189.039062 118.605469 C 196.335938 118.605469 202.277344 112.664062 202.277344 105.367188 L 202.277344 38.425781 C 202.277344 31.125 196.335938 25.1875 189.039062 25.1875 Z M 188.710938 25.1875 " fill-opacity="1" fill-rule="nonzero"/><path fill="#f2c70f" d="M 280.105469 123.171875 C 280.105469 130.4375 273.382812 136.328125 265.089844 136.328125 L 118.472656 136.328125 C 110.179688 136.328125 103.460938 130.4375 103.460938 123.171875 C 103.460938 115.90625 110.179688 110.019531 118.472656 110.019531 L 265.089844 110.019531 C 273.382812 110.019531 280.105469 115.90625 280.105469 123.171875 Z M 280.105469 123.171875 " fill-opacity="1" fill-rule="nonzero"/><path fill="#000000" d="M 265.089844 138.839844 L 118.472656 138.839844 C 108.8125 138.839844 100.949219 131.8125 100.949219 123.171875 C 100.949219 114.535156 108.808594 107.511719 118.472656 107.511719 L 265.089844 107.511719 C 274.753906 107.511719 282.617188 114.539062 282.617188 123.171875 C 282.617188 131.8125 274.753906 138.839844 265.089844 138.839844 Z M 118.472656 112.53125 C 111.578125 112.53125 105.972656 117.304688 105.972656 123.171875 C 105.972656 129.039062 111.578125 133.816406 118.472656 133.816406 L 265.089844 133.816406 C 271.984375 133.816406 277.59375 129.039062 277.59375 123.171875 C 277.59375 117.304688 271.984375 112.53125 265.089844 112.53125 Z M 118.472656 112.53125 " fill-opacity="1" fill-rule="nonzero"/><g clip-path="url(#ac52019484)"><path fill="#f2c70f" d="M 314.800781 344.148438 C 314.800781 350.050781 310.015625 354.832031 304.113281 354.832031 L 75.328125 354.832031 C 69.429688 354.832031 64.648438 350.050781 64.648438 344.148438 L 41.5 199.042969 C 41.5 193.144531 46.28125 188.359375 52.183594 188.359375 L 327.261719 188.359375 C 333.160156 188.359375 337.945312 193.140625 337.945312 199.042969 Z M 314.800781 344.148438 " fill-opacity="1" fill-rule="nonzero"/></g><path fill="#000000" d="M 56.414062 227.34375 C 55.199219 227.34375 54.136719 226.464844 53.9375 225.226562 L 50.828125 205.726562 C 50.808594 205.597656 50.796875 205.464844 50.796875 205.332031 C 50.796875 198.359375 56.472656 192.683594 63.445312 192.683594 L 83.339844 192.683594 C 84.726562 192.683594 85.851562 193.808594 85.851562 195.195312 C 85.851562 196.582031 84.726562 197.707031 83.339844 197.707031 L 63.445312 197.707031 C 59.300781 197.707031 55.921875 201.027344 55.820312 205.148438 L 58.898438 224.433594 C 59.117188 225.804688 58.183594 227.089844 56.816406 227.3125 C 56.679688 227.332031 56.546875 227.34375 56.414062 227.34375 Z M 56.414062 227.34375 " fill-opacity="1" fill-rule="nonzero"/><path fill="#d8d4d3" d="M 342.695312 283.910156 C 342.695312 289.808594 337.914062 294.59375 332.011719 294.59375 L 329.636719 294.59375 C 323.738281 294.59375 318.957031 289.8125 318.957031 283.910156 L 318.957031 256.609375 C 318.957031 250.710938 323.734375 245.925781 329.636719 245.925781 L 332.011719 245.925781 C 337.910156 245.925781 342.695312 250.707031 342.695312 256.609375 Z M 342.695312 283.910156 " fill-opacity="1" fill-rule="nonzero"/><g clip-path="url(#db6b06da9a)"><path fill="#000000" d="M 332.011719 297.105469 L 329.636719 297.105469 C 322.363281 297.105469 316.445312 291.1875 316.445312 283.910156 L 316.445312 256.609375 C 316.445312 249.332031 322.363281 243.414062 329.636719 243.414062 L 332.011719 243.414062 C 339.289062 243.414062 345.207031 249.332031 345.207031 256.609375 L 345.207031 283.910156 C 345.207031 291.1875 339.285156 297.105469 332.011719 297.105469 Z M 329.636719 248.4375 C 325.132812 248.4375 321.464844 252.105469 321.464844 256.609375 L 321.464844 283.914062 C 321.464844 288.417969 325.132812 292.085938 329.636719 292.085938 L 332.011719 292.085938 C 336.515625 292.085938 340.183594 288.417969 340.183594 283.914062 L 340.183594 256.609375 C 340.183594 252.105469 336.519531 248.4375 332.011719 248.4375 Z M 329.636719 248.4375 " fill-opacity="1" fill-rule="nonzero"/></g><path fill="#d8d4d3" d="M 56.042969 277.976562 C 56.042969 283.875 51.257812 288.65625 45.355469 288.65625 L 42.984375 288.65625 C 37.082031 288.65625 32.300781 283.875 32.300781 277.976562 L 32.300781 250.675781 C 32.300781 244.773438 37.082031 239.992188 42.984375 239.992188 L 45.355469 239.992188 C 51.257812 239.992188 56.042969 244.773438 56.042969 250.675781 Z M 56.042969 277.976562 " fill-opacity="1" fill-rule="nonzero"/><g clip-path="url(#2d4f08b689)"><path fill="#000000" d="M 45.359375 291.167969 L 42.984375 291.167969 C 35.710938 291.167969 29.792969 285.25 29.792969 277.976562 L 29.792969 250.675781 C 29.792969 243.398438 35.710938 237.480469 42.984375 237.480469 L 45.359375 237.480469 C 52.632812 237.480469 58.554688 243.398438 58.554688 250.675781 L 58.554688 277.976562 C 58.550781 285.25 52.632812 291.167969 45.359375 291.167969 Z M 42.984375 242.503906 C 38.480469 242.503906 34.8125 246.167969 34.8125 250.675781 L 34.8125 277.976562 C 34.8125 282.480469 38.476562 286.148438 42.984375 286.148438 L 45.359375 286.148438 C 49.863281 286.148438 53.53125 282.484375 53.53125 277.976562 L 53.53125 250.675781 C 53.53125 246.171875 49.867188 242.503906 45.359375 242.503906 Z M 42.984375 242.503906 " fill-opacity="1" fill-rule="nonzero"/></g></svg>